<?xml version="1.0" encoding="UTF-8" standalone="no"?>
<svg
   viewBox="1.877 -15.016 370 370"
   version="1.1"
   id="svg141"
   sodipodi:docname="pig-eon.svg"
   inkscape:version="1.1.2 (0a00cf5339, 2022-02-04)"
   xmlns:inkscape="http://www.inkscape.org/namespaces/inkscape"
   xmlns:sodipodi="http://sodipodi.sourceforge.net/DTD/sodipodi-0.dtd"
   xmlns:xlink="http://www.w3.org/1999/xlink"
   xmlns="http://www.w3.org/2000/svg"
   xmlns:svg="http://www.w3.org/2000/svg"
   xmlns:bx="https://boxy-svg.com">
  <sodipodi:namedview
     id="namedview143"
     pagecolor="#ffffff"
     bordercolor="#999999"
     borderopacity="1"
     inkscape:pageshadow="0"
     inkscape:pageopacity="0"
     inkscape:pagecheckerboard="0"
     showgrid="false"
     inkscape:zoom="1.0837838"
     inkscape:cx="163.77805"
     inkscape:cy="249.12718"
     inkscape:window-width="1920"
     inkscape:window-height="1011"
     inkscape:window-x="0"
     inkscape:window-y="1112"
     inkscape:window-maximized="1"
     inkscape:current-layer="svg141" />
  <defs
     id="defs117">
    <linearGradient
       id="color-0"
       bx:pinned="true">
      <title
         id="title93">Pig</title>
      <stop
         style="stop-color: rgb(255, 175, 158);"
         id="stop95" />
    </linearGradient>
    <linearGradient
       id="color-2">
      <title
         id="title98">Pig shadow</title>
      <stop
         style="stop-color: rgb(187, 129, 116);"
         id="stop100" />
    </linearGradient>
    <linearGradient
       id="color-1"
       bx:pinned="true">
      <title
         id="title103">Paint</title>
      <stop
         style="stop-color: rgb(239, 0, 0);"
         id="stop105" />
    </linearGradient>
    <filter
       id="gaussian-blur-filter-0"
       color-interpolation-filters="sRGB"
       x="-0.19989806"
       y="-0.1748392"
       width="1.3989329"
       height="1.3501014"
       bx:preset="gaussian-blur 1 1.7">
      <feGaussianBlur
         stdDeviation="1.7 1.7"
         edgeMode="none"
         id="feGaussianBlur108" />
    </filter>
    <filter
       id="filter-1"
       color-interpolation-filters="sRGB"
       x="-0.19716951"
       y="-0.16856396"
       width="1.3939408"
       height="1.3383653"
       bx:preset="gaussian-blur 1 1.7">
      <feGaussianBlur
         stdDeviation="1.7 1.7"
         edgeMode="none"
         id="feGaussianBlur111" />
    </filter>
    <filter
       id="filter-2"
       color-interpolation-filters="sRGB"
       x="-1.1256311"
       y="-0.36747952"
       width="3.2512623"
       height="1.734959"
       bx:preset="gaussian-blur 1 1.7">
      <feGaussianBlur
         stdDeviation="1.7 1.7"
         edgeMode="none"
         id="feGaussianBlur114" />
    </filter>
    <linearGradient
       inkscape:collect="always"
       xlink:href="#color-0"
       id="linearGradient1235"
       x1="24.750181"
       y1="193.15637"
       x2="321.97714"
       y2="193.15637"
       gradientUnits="userSpaceOnUse"
       gradientTransform="rotate(18.999984,127.59576,195.15179)" />
  </defs>
  <path
     style="stroke: rgb(0, 0, 0); fill: url(#color-2);"
     d="M 98.658 184.01 L 89.053 226.797 L 109.782 239.089 C 109.782 239.089 123.368 249.937 123.544 249.937 C 123.981 249.937 130.53 239.458 130.53 239.458 L 113.626 230.63 L 103.813 222.528 L 120.488 193.615 L 98.658 184.01 Z"
     transform="matrix(0.945519, 0.325568, -0.325568, 0.945519, 76.621175, -23.92358)"
     id="path119" />
  <path
     style="stroke: rgb(0, 0, 0); fill: url(#color-2);"
     d="M 256.479 249.874 L 270.018 296.044 L 295.013 320.345 L 299.178 332.495 L 309.593 319.65 L 302.997 312.013 L 291.541 285.283 L 288.764 243.972"
     transform="matrix(0.945519, 0.325568, -0.325568, 0.945519, 109.259727, -76.444076)"
     id="path121" />
  <path
     style="stroke: rgb(0, 0, 0); fill: url(#color-0);"
     d="M 187.224 154.17 L 179.182 93.642 L 188.563 18.102 C 188.563 18.102 193.187 21.505 194.277 24.022 C 195.838 27.627 194.862 35.792 194.862 35.792 L 200.07 19.672 C 200.07 19.672 204.767 23.894 206.087 26.673 C 207.992 30.682 208.432 39.781 208.432 39.781 L 213.095 22.745 C 213.095 22.745 218.133 28 219.506 31.283 C 221.627 36.355 221.939 47.595 221.939 47.595 L 228.882 34.056 L 250.752 51.761 C 250.752 51.761 271.234 67.036 271.928 70.854 C 272.622 74.672 279.219 88.212 280.954 93.766 C 282.689 99.32 284.079 118.413 283.731 122.926 C 283.383 127.439 285.12 137.854 284.426 139.589 C 283.732 141.324 262.208 147.574 258.39 148.962 C 254.572 150.35 233.395 153.475 233.395 153.475"
     transform="matrix(0.945519, 0.325568, -0.325568, 0.945519, 40.676601, -70.802044)"
     id="path123" />
  <path
     style="stroke: rgb(0, 0, 0); fill: url(#color-0);"
     d="M 101.745 104.55 C 101.745 104.55 101.293 95.371 102.895 91.202 C 105.448 84.557 118.773 76.014 118.773 76.014 C 118.773 76.014 119.362 86.197 118.313 92.123 C 117.33 97.68 110.49 106.391 110.49 106.391"
     id="path125" />
  <path
     id="path127"
     style="fill:url(#linearGradient1235);fill-opacity:1;stroke:#000000"
     d="m 97.296875,87.013672 c 0,0 -6.420373,11.407311 -4.216797,19.007808 1.423091,4.90664 3.255859,12.76563 3.25586,12.76563 0,0 -14.144464,9.27928 -20.207032,11.86328 -7.659977,3.26399 -27.044922,6.14453 -27.044922,6.14453 l -9.095703,-1.34961 -3.234375,19.25781 c 0,0 4.246063,3.74891 9.46875,6.85547 5.222687,3.10656 16.116682,6.48297 22.341797,10.69727 6.067092,4.10806 14.128422,11.38341 18.517578,17.25 4.552086,6.08451 12.271485,10.44531 12.271485,10.44531 2.154514,3.88511 -10.359375,52.95508 -10.359375,52.95508 l -11.423829,18.70703 13.228516,4.25781 7.765625,-17.28711 26.810547,-39.66601 c 0,0 27.05527,17.47532 41.44922,26.4082 20.97202,13.01595 43.69762,24.94871 67.98437,29.35156 12.75817,2.31265 26.11914,-0.75585 26.11914,-0.75585 0,0 -17.86448,26.07562 -16.91406,31.90039 1.01547,6.21945 21.21289,14.61328 21.21289,14.61328 l 2.93555,11.79101 10.68359,-13.05664 -17.66797,-13.39062 c 0,0 20.74005,-12.2884 28.9961,-20.8711 10.07635,-10.47517 24.08008,-36.35156 24.08008,-36.35156 0,0 7.30249,-19.99065 6.0332,-33.4375 -0.0972,-1.02905 -0.28251,-1.98035 -0.42578,-2.9668 2.06773,-0.51376 4.37213,-1.33864 6.70508,-2.65429 2.58098,-1.45533 5.48407,-3.71261 7.42578,-7.02149 0.31537,0.003 0.62893,0.007 0.96484,0.006 3.67294,-0.009 11.75977,-1.35351 11.75977,-1.35351 0,0 -5.95404,-0.47878 -10.10157,-1.3125 -0.44383,-0.0893 -0.87071,-0.1633 -1.29492,-0.23633 0.72183,-2.10821 1.06366,-4.54208 0.81446,-7.34961 -0.70787,-7.97283 -6.11707,-8.96082 -8.48829,-9.59961 -0.2964,-0.0799 -0.6347,-0.10812 -1.0039,-0.0879 -2.58439,0.14159 -6.6518,2.62349 -7.98633,5.87305 -1.38197,3.36543 -0.70305,7.08257 2.08594,9.41992 2.13189,1.78602 3.76864,2.91019 5.62109,3.60742 -0.98857,0.90316 -2.08511,1.67261 -3.26562,2.24609 -1.19458,0.5804 -2.97136,1.03587 -4.85938,1.2793 -1.22102,-3.53779 -3.03781,-6.79945 -5.81055,-9.8418 -11.46717,-12.58287 -27.83646,-19.48118 -43.91796,-25.07031 -18.61952,-6.47149 -39.3354,-13.70405 -58.63672,-17.70703 -15.56308,-3.22768 -22.36566,-4.92861 -37.06446,-10.97656 -6.3604,-2.61734 -20.49341,-7.81922 -26.9414,-10.21289 -10.37589,-3.85298 -27.90536,-9.94202 -38.8711,-11.44922 0,0 3.73745,-9.95432 2.20313,-16.76172 C 107.72062,96.391564 97.296875,87.013672 97.296875,87.013672 Z M 326.87109,187.17773 c 0.58997,-0.0251 1.19231,0.10046 1.76953,0.41211 2.10006,1.13452 2.99654,4.64093 2.22461,6.94727 -0.44737,1.3364 -1.10004,2.65446 -1.91601,3.87891 -1.28312,-0.34873 -2.56725,-0.83138 -3.91602,-1.58985 -2.39334,-1.3455 -3.06875,-3.6591 -2.21289,-6.26758 0.61282,-1.86959 2.2809,-3.30563 4.05078,-3.38086 z"
     transform="translate(1.877,-15.016)"
     sodipodi:nodetypes="ccccccczccccccccccccccccccscccscsccsscccccccscccccscscccs" />
  <path
     style="stroke: rgb(0, 0, 0); fill: url(#color-2);"
     d="M 190.508 157.727 L 190.855 156.338 L 200.228 93.505 L 229.388 24.769 C 229.388 24.769 233.837 29.668 234.595 32.754 C 236.038 38.624 232.86 50.805 232.86 50.805 L 244.663 28.588 C 244.663 28.588 248.497 36.019 248.481 40.044 C 248.463 44.691 243.968 53.236 243.968 53.236 L 258.201 32.407 L 258.896 41.78 L 256.813 52.541 L 266.186 42.127 C 266.186 42.127 268.314 46.161 268.616 48.375 C 269.088 51.832 267.574 58.79 267.574 58.79 L 274.517 49.07 C 274.517 49.07 276.437 52.415 276.6 54.277 C 276.848 57.103 275.212 62.261 274.864 62.609 C 274.516 62.957 282.849 58.79 282.849 59.137 L 284.585 68.857 C 284.585 68.857 291.875 68.163 292.222 68.163 L 285.626 81.354 L 296.388 84.826 L 290.833 90.727 L 296.388 99.406 L 297.776 108.779 L 298.123 121.624 L 301.942 130.997 L 296.388 137.94 L 284.585 145.924 L 272.434 149.743 L 238.414 156.686"
     transform="matrix(0.945519, 0.325568, -0.325568, 0.945519, 43.122075, -75.191625)"
     id="path131" />
  <g
     transform="matrix(1, 0, 0, 1, 15.641365, 7.507855)"
     id="g139">
    <path
       style="fill-rule: nonzero; fill: none; stroke: url(#color-1); stroke-width: 7px; stroke-linecap: round; stroke-miterlimit: 1; filter: url(#gaussian-blur-filter-0);"
       d="M 177.507 162.387 C 177.507 162.387 167.575 144.598 156.235 148.622 C 144.717 152.709 136.214 170.521 140.594 181.782 C 144.974 193.043 161.866 191.166 161.866 191.166"
       id="path133" />
    <path
       style="fill-rule: nonzero; fill: none; stroke: url(#color-1); stroke-width: 7px; stroke-linecap: round; stroke-miterlimit: 1; filter: url(#filter-1);"
       d="M 220.95 183.411 C 218.866 175.226 211.018 165.622 199.678 169.646 C 188.16 173.733 179.657 191.545 184.037 202.806 C 188.417 214.067 197.974 214.692 205.309 212.19 C 215.643 208.665 223.644 193.992 220.95 183.411 Z"
       id="path135" />
    <path
       style="fill-rule: nonzero; fill: none; stroke: url(#color-1); stroke-width: 7px; stroke-linecap: round; stroke-miterlimit: 1; filter: url(#filter-2);"
       d="M 200.929 201.555 L 207.663 222.182"
       id="path137" />
  </g>
</svg>
